G04 (created by PCBNEW (2013-07-07 BZR 4022)-stable) date 11/24/2014 5:15:10 AM*
%MOIN*%
G04 Gerber Fmt 3.4, Leading zero omitted, Abs format*
%FSLAX34Y34*%
G01*
G70*
G90*
G04 APERTURE LIST*
%ADD10C,0.00590551*%
%ADD11C,0.011811*%
%ADD12C,0.008*%
%ADD13C,0.005*%
%ADD14C,0.0039*%
%ADD15C,0.0043*%
G04 APERTURE END LIST*
G54D10*
G54D11*
X77840Y-51039D02*
X77840Y-50448D01*
X77699Y-50448D01*
X77615Y-50476D01*
X77559Y-50532D01*
X77530Y-50589D01*
X77502Y-50701D01*
X77502Y-50785D01*
X77530Y-50898D01*
X77559Y-50954D01*
X77615Y-51010D01*
X77699Y-51039D01*
X77840Y-51039D01*
X77024Y-51010D02*
X77080Y-51039D01*
X77193Y-51039D01*
X77249Y-51010D01*
X77277Y-50954D01*
X77277Y-50729D01*
X77249Y-50673D01*
X77193Y-50645D01*
X77080Y-50645D01*
X77024Y-50673D01*
X76996Y-50729D01*
X76996Y-50785D01*
X77277Y-50842D01*
X76771Y-51010D02*
X76715Y-51039D01*
X76602Y-51039D01*
X76546Y-51010D01*
X76518Y-50954D01*
X76518Y-50926D01*
X76546Y-50870D01*
X76602Y-50842D01*
X76687Y-50842D01*
X76743Y-50814D01*
X76771Y-50757D01*
X76771Y-50729D01*
X76743Y-50673D01*
X76687Y-50645D01*
X76602Y-50645D01*
X76546Y-50673D01*
X76265Y-51039D02*
X76265Y-50645D01*
X76265Y-50448D02*
X76293Y-50476D01*
X76265Y-50504D01*
X76237Y-50476D01*
X76265Y-50448D01*
X76265Y-50504D01*
X75731Y-50645D02*
X75731Y-51123D01*
X75759Y-51179D01*
X75787Y-51207D01*
X75843Y-51235D01*
X75928Y-51235D01*
X75984Y-51207D01*
X75731Y-51010D02*
X75787Y-51039D01*
X75899Y-51039D01*
X75956Y-51010D01*
X75984Y-50982D01*
X76012Y-50926D01*
X76012Y-50757D01*
X75984Y-50701D01*
X75956Y-50673D01*
X75899Y-50645D01*
X75787Y-50645D01*
X75731Y-50673D01*
X75449Y-50645D02*
X75449Y-51039D01*
X75449Y-50701D02*
X75421Y-50673D01*
X75365Y-50645D01*
X75281Y-50645D01*
X75224Y-50673D01*
X75196Y-50729D01*
X75196Y-51039D01*
X74690Y-51010D02*
X74746Y-51039D01*
X74859Y-51039D01*
X74915Y-51010D01*
X74943Y-50954D01*
X74943Y-50729D01*
X74915Y-50673D01*
X74859Y-50645D01*
X74746Y-50645D01*
X74690Y-50673D01*
X74662Y-50729D01*
X74662Y-50785D01*
X74943Y-50842D01*
X74184Y-51010D02*
X74240Y-51039D01*
X74353Y-51039D01*
X74409Y-51010D01*
X74437Y-50954D01*
X74437Y-50729D01*
X74409Y-50673D01*
X74353Y-50645D01*
X74240Y-50645D01*
X74184Y-50673D01*
X74156Y-50729D01*
X74156Y-50785D01*
X74437Y-50842D01*
X73650Y-51039D02*
X73650Y-50448D01*
X73650Y-51010D02*
X73706Y-51039D01*
X73818Y-51039D01*
X73875Y-51010D01*
X73903Y-50982D01*
X73931Y-50926D01*
X73931Y-50757D01*
X73903Y-50701D01*
X73875Y-50673D01*
X73818Y-50645D01*
X73706Y-50645D01*
X73650Y-50673D01*
X72722Y-50729D02*
X72637Y-50757D01*
X72609Y-50785D01*
X72581Y-50842D01*
X72581Y-50926D01*
X72609Y-50982D01*
X72637Y-51010D01*
X72694Y-51039D01*
X72919Y-51039D01*
X72919Y-50448D01*
X72722Y-50448D01*
X72665Y-50476D01*
X72637Y-50504D01*
X72609Y-50560D01*
X72609Y-50617D01*
X72637Y-50673D01*
X72665Y-50701D01*
X72722Y-50729D01*
X72919Y-50729D01*
X72384Y-50645D02*
X72244Y-51039D01*
X72103Y-50645D02*
X72244Y-51039D01*
X72300Y-51179D01*
X72328Y-51207D01*
X72384Y-51235D01*
X77868Y-51393D02*
X77530Y-51393D01*
X77699Y-51983D02*
X77699Y-51393D01*
X77390Y-51590D02*
X77249Y-51983D01*
X77109Y-51590D02*
X77249Y-51983D01*
X77305Y-52124D01*
X77334Y-52152D01*
X77390Y-52180D01*
X76799Y-51983D02*
X76856Y-51955D01*
X76884Y-51899D01*
X76884Y-51393D01*
X76349Y-51955D02*
X76406Y-51983D01*
X76518Y-51983D01*
X76574Y-51955D01*
X76602Y-51899D01*
X76602Y-51674D01*
X76574Y-51618D01*
X76518Y-51590D01*
X76406Y-51590D01*
X76349Y-51618D01*
X76321Y-51674D01*
X76321Y-51730D01*
X76602Y-51787D01*
X76068Y-51983D02*
X76068Y-51590D01*
X76068Y-51702D02*
X76040Y-51646D01*
X76012Y-51618D01*
X75956Y-51590D01*
X75899Y-51590D01*
X75253Y-51983D02*
X75253Y-51393D01*
X75253Y-51674D02*
X74915Y-51674D01*
X74915Y-51983D02*
X74915Y-51393D01*
X74381Y-51983D02*
X74381Y-51674D01*
X74409Y-51618D01*
X74465Y-51590D01*
X74578Y-51590D01*
X74634Y-51618D01*
X74381Y-51955D02*
X74437Y-51983D01*
X74578Y-51983D01*
X74634Y-51955D01*
X74662Y-51899D01*
X74662Y-51843D01*
X74634Y-51787D01*
X74578Y-51758D01*
X74437Y-51758D01*
X74381Y-51730D01*
X73847Y-51955D02*
X73903Y-51983D01*
X74015Y-51983D01*
X74071Y-51955D01*
X74100Y-51927D01*
X74128Y-51871D01*
X74128Y-51702D01*
X74100Y-51646D01*
X74071Y-51618D01*
X74015Y-51590D01*
X73903Y-51590D01*
X73847Y-51618D01*
X73593Y-51983D02*
X73593Y-51393D01*
X73537Y-51758D02*
X73368Y-51983D01*
X73368Y-51590D02*
X73593Y-51815D01*
X72890Y-51955D02*
X72947Y-51983D01*
X73059Y-51983D01*
X73115Y-51955D01*
X73143Y-51899D01*
X73143Y-51674D01*
X73115Y-51618D01*
X73059Y-51590D01*
X72947Y-51590D01*
X72890Y-51618D01*
X72862Y-51674D01*
X72862Y-51730D01*
X73143Y-51787D01*
X72694Y-51590D02*
X72469Y-51590D01*
X72609Y-51393D02*
X72609Y-51899D01*
X72581Y-51955D01*
X72525Y-51983D01*
X72469Y-51983D01*
X72356Y-51590D02*
X72131Y-51590D01*
X72272Y-51393D02*
X72272Y-51899D01*
X72244Y-51955D01*
X72187Y-51983D01*
X72131Y-51983D01*
G54D12*
X76400Y-54600D02*
X76400Y-55800D01*
X76400Y-55800D02*
X73600Y-55800D01*
X73600Y-55800D02*
X73600Y-54600D01*
X76400Y-53400D02*
X76400Y-53100D01*
X76400Y-53100D02*
X75800Y-52200D01*
X75800Y-52200D02*
X74200Y-52200D01*
X74200Y-52200D02*
X73600Y-53100D01*
X73600Y-53100D02*
X73600Y-53400D01*
G54D13*
X77950Y-56000D02*
X77050Y-56000D01*
X77050Y-56000D02*
X77050Y-55350D01*
X77950Y-54650D02*
X77950Y-54000D01*
X77950Y-54000D02*
X77050Y-54000D01*
X77050Y-54000D02*
X77050Y-54650D01*
X77950Y-55350D02*
X77950Y-56000D01*
X72950Y-56000D02*
X72050Y-56000D01*
X72050Y-56000D02*
X72050Y-55350D01*
X72950Y-54650D02*
X72950Y-54000D01*
X72950Y-54000D02*
X72050Y-54000D01*
X72050Y-54000D02*
X72050Y-54650D01*
X72950Y-55350D02*
X72950Y-56000D01*
G54D14*
X78150Y-52150D02*
G75*
G03X78150Y-52150I-50J0D01*
G74*
G01*
X78100Y-52600D02*
X78100Y-52200D01*
X78100Y-52200D02*
X77500Y-52200D01*
X77500Y-52200D02*
X77500Y-52600D01*
X77500Y-53000D02*
X77500Y-53400D01*
X77500Y-53400D02*
X78100Y-53400D01*
X78100Y-53400D02*
X78100Y-53000D01*
X76750Y-53450D02*
G75*
G03X76750Y-53450I-50J0D01*
G74*
G01*
X76700Y-53000D02*
X76700Y-53400D01*
X76700Y-53400D02*
X77300Y-53400D01*
X77300Y-53400D02*
X77300Y-53000D01*
X77300Y-52600D02*
X77300Y-52200D01*
X77300Y-52200D02*
X76700Y-52200D01*
X76700Y-52200D02*
X76700Y-52600D01*
X72550Y-52150D02*
G75*
G03X72550Y-52150I-50J0D01*
G74*
G01*
X72500Y-52600D02*
X72500Y-52200D01*
X72500Y-52200D02*
X71900Y-52200D01*
X71900Y-52200D02*
X71900Y-52600D01*
X71900Y-53000D02*
X71900Y-53400D01*
X71900Y-53400D02*
X72500Y-53400D01*
X72500Y-53400D02*
X72500Y-53000D01*
X72750Y-53450D02*
G75*
G03X72750Y-53450I-50J0D01*
G74*
G01*
X72700Y-53000D02*
X72700Y-53400D01*
X72700Y-53400D02*
X73300Y-53400D01*
X73300Y-53400D02*
X73300Y-53000D01*
X73300Y-52600D02*
X73300Y-52200D01*
X73300Y-52200D02*
X72700Y-52200D01*
X72700Y-52200D02*
X72700Y-52600D01*
G54D12*
X75266Y-53861D02*
X75399Y-53671D01*
X75495Y-53861D02*
X75495Y-53461D01*
X75342Y-53461D01*
X75304Y-53480D01*
X75285Y-53500D01*
X75266Y-53538D01*
X75266Y-53595D01*
X75285Y-53633D01*
X75304Y-53652D01*
X75342Y-53671D01*
X75495Y-53671D01*
X74885Y-53480D02*
X74923Y-53461D01*
X74980Y-53461D01*
X75038Y-53480D01*
X75076Y-53519D01*
X75095Y-53557D01*
X75114Y-53633D01*
X75114Y-53690D01*
X75095Y-53766D01*
X75076Y-53804D01*
X75038Y-53842D01*
X74980Y-53861D01*
X74942Y-53861D01*
X74885Y-53842D01*
X74866Y-53823D01*
X74866Y-53690D01*
X74942Y-53690D01*
X74485Y-53861D02*
X74714Y-53861D01*
X74599Y-53861D02*
X74599Y-53461D01*
X74638Y-53519D01*
X74676Y-53557D01*
X74714Y-53576D01*
X76076Y-54061D02*
X75847Y-54061D01*
X75961Y-54461D02*
X75961Y-54061D01*
X75485Y-54423D02*
X75504Y-54442D01*
X75561Y-54461D01*
X75600Y-54461D01*
X75657Y-54442D01*
X75695Y-54404D01*
X75714Y-54366D01*
X75733Y-54290D01*
X75733Y-54233D01*
X75714Y-54157D01*
X75695Y-54119D01*
X75657Y-54080D01*
X75600Y-54061D01*
X75561Y-54061D01*
X75504Y-54080D01*
X75485Y-54100D01*
X75104Y-54461D02*
X75333Y-54461D01*
X75219Y-54461D02*
X75219Y-54061D01*
X75257Y-54119D01*
X75295Y-54157D01*
X75333Y-54176D01*
X74952Y-54100D02*
X74933Y-54080D01*
X74895Y-54061D01*
X74800Y-54061D01*
X74761Y-54080D01*
X74742Y-54100D01*
X74723Y-54138D01*
X74723Y-54176D01*
X74742Y-54233D01*
X74971Y-54461D01*
X74723Y-54461D01*
X74380Y-54061D02*
X74457Y-54061D01*
X74495Y-54080D01*
X74514Y-54100D01*
X74552Y-54157D01*
X74571Y-54233D01*
X74571Y-54385D01*
X74552Y-54423D01*
X74533Y-54442D01*
X74495Y-54461D01*
X74419Y-54461D01*
X74380Y-54442D01*
X74361Y-54423D01*
X74342Y-54385D01*
X74342Y-54290D01*
X74361Y-54252D01*
X74380Y-54233D01*
X74419Y-54214D01*
X74495Y-54214D01*
X74533Y-54233D01*
X74552Y-54252D01*
X74571Y-54290D01*
X74190Y-54100D02*
X74171Y-54080D01*
X74133Y-54061D01*
X74038Y-54061D01*
X74000Y-54080D01*
X73980Y-54100D01*
X73961Y-54138D01*
X73961Y-54176D01*
X73980Y-54233D01*
X74209Y-54461D01*
X73961Y-54461D01*
G54D13*
X77592Y-54950D02*
X77607Y-54935D01*
X77621Y-54892D01*
X77621Y-54864D01*
X77607Y-54821D01*
X77578Y-54792D01*
X77550Y-54778D01*
X77492Y-54764D01*
X77450Y-54764D01*
X77392Y-54778D01*
X77364Y-54792D01*
X77335Y-54821D01*
X77321Y-54864D01*
X77321Y-54892D01*
X77335Y-54935D01*
X77350Y-54950D01*
X77621Y-55235D02*
X77621Y-55064D01*
X77621Y-55150D02*
X77321Y-55150D01*
X77364Y-55121D01*
X77392Y-55092D01*
X77407Y-55064D01*
X72592Y-54950D02*
X72607Y-54935D01*
X72621Y-54892D01*
X72621Y-54864D01*
X72607Y-54821D01*
X72578Y-54792D01*
X72550Y-54778D01*
X72492Y-54764D01*
X72450Y-54764D01*
X72392Y-54778D01*
X72364Y-54792D01*
X72335Y-54821D01*
X72321Y-54864D01*
X72321Y-54892D01*
X72335Y-54935D01*
X72350Y-54950D01*
X72350Y-55064D02*
X72335Y-55078D01*
X72321Y-55107D01*
X72321Y-55178D01*
X72335Y-55207D01*
X72350Y-55221D01*
X72378Y-55235D01*
X72407Y-55235D01*
X72450Y-55221D01*
X72621Y-55050D01*
X72621Y-55235D01*
G54D15*
X77754Y-52654D02*
X77557Y-52654D01*
X77557Y-52701D01*
X77567Y-52729D01*
X77585Y-52748D01*
X77604Y-52757D01*
X77642Y-52767D01*
X77670Y-52767D01*
X77707Y-52757D01*
X77726Y-52748D01*
X77745Y-52729D01*
X77754Y-52701D01*
X77754Y-52654D01*
X77576Y-52842D02*
X77567Y-52851D01*
X77557Y-52870D01*
X77557Y-52917D01*
X77567Y-52936D01*
X77576Y-52945D01*
X77595Y-52954D01*
X77614Y-52954D01*
X77642Y-52945D01*
X77754Y-52832D01*
X77754Y-52954D01*
X78423Y-52537D02*
X78226Y-52537D01*
X78226Y-52612D01*
X78235Y-52631D01*
X78245Y-52640D01*
X78263Y-52649D01*
X78292Y-52649D01*
X78310Y-52640D01*
X78320Y-52631D01*
X78329Y-52612D01*
X78329Y-52537D01*
X78226Y-52715D02*
X78423Y-52762D01*
X78282Y-52800D01*
X78423Y-52837D01*
X78226Y-52884D01*
X78423Y-53072D02*
X78329Y-53006D01*
X78423Y-52959D02*
X78226Y-52959D01*
X78226Y-53034D01*
X78235Y-53053D01*
X78245Y-53062D01*
X78263Y-53072D01*
X78292Y-53072D01*
X78310Y-53062D01*
X78320Y-53053D01*
X78329Y-53034D01*
X78329Y-52959D01*
X77204Y-52767D02*
X77110Y-52701D01*
X77204Y-52654D02*
X77007Y-52654D01*
X77007Y-52729D01*
X77017Y-52748D01*
X77026Y-52757D01*
X77045Y-52767D01*
X77073Y-52767D01*
X77092Y-52757D01*
X77101Y-52748D01*
X77110Y-52729D01*
X77110Y-52654D01*
X77026Y-52842D02*
X77017Y-52851D01*
X77007Y-52870D01*
X77007Y-52917D01*
X77017Y-52936D01*
X77026Y-52945D01*
X77045Y-52954D01*
X77064Y-52954D01*
X77092Y-52945D01*
X77204Y-52832D01*
X77204Y-52954D01*
X76732Y-52743D02*
X76732Y-52706D01*
X76742Y-52687D01*
X76751Y-52678D01*
X76779Y-52659D01*
X76817Y-52649D01*
X76892Y-52649D01*
X76910Y-52659D01*
X76920Y-52668D01*
X76929Y-52687D01*
X76929Y-52724D01*
X76920Y-52743D01*
X76910Y-52753D01*
X76892Y-52762D01*
X76845Y-52762D01*
X76826Y-52753D01*
X76817Y-52743D01*
X76807Y-52724D01*
X76807Y-52687D01*
X76817Y-52668D01*
X76826Y-52659D01*
X76845Y-52649D01*
X76732Y-52884D02*
X76732Y-52903D01*
X76742Y-52921D01*
X76751Y-52931D01*
X76770Y-52940D01*
X76807Y-52950D01*
X76854Y-52950D01*
X76892Y-52940D01*
X76910Y-52931D01*
X76920Y-52921D01*
X76929Y-52903D01*
X76929Y-52884D01*
X76920Y-52865D01*
X76910Y-52856D01*
X76892Y-52846D01*
X76854Y-52837D01*
X76807Y-52837D01*
X76770Y-52846D01*
X76751Y-52856D01*
X76742Y-52865D01*
X76732Y-52884D01*
X72154Y-52767D02*
X72060Y-52701D01*
X72154Y-52654D02*
X71957Y-52654D01*
X71957Y-52729D01*
X71967Y-52748D01*
X71976Y-52757D01*
X71995Y-52767D01*
X72023Y-52767D01*
X72042Y-52757D01*
X72051Y-52748D01*
X72060Y-52729D01*
X72060Y-52654D01*
X72154Y-52954D02*
X72154Y-52842D01*
X72154Y-52898D02*
X71957Y-52898D01*
X71985Y-52879D01*
X72004Y-52860D01*
X72014Y-52842D01*
X72232Y-52743D02*
X72232Y-52706D01*
X72242Y-52687D01*
X72251Y-52678D01*
X72279Y-52659D01*
X72317Y-52649D01*
X72392Y-52649D01*
X72410Y-52659D01*
X72420Y-52668D01*
X72429Y-52687D01*
X72429Y-52724D01*
X72420Y-52743D01*
X72410Y-52753D01*
X72392Y-52762D01*
X72345Y-52762D01*
X72326Y-52753D01*
X72317Y-52743D01*
X72307Y-52724D01*
X72307Y-52687D01*
X72317Y-52668D01*
X72326Y-52659D01*
X72345Y-52649D01*
X72232Y-52884D02*
X72232Y-52903D01*
X72242Y-52921D01*
X72251Y-52931D01*
X72270Y-52940D01*
X72307Y-52950D01*
X72354Y-52950D01*
X72392Y-52940D01*
X72410Y-52931D01*
X72420Y-52921D01*
X72429Y-52903D01*
X72429Y-52884D01*
X72420Y-52865D01*
X72410Y-52856D01*
X72392Y-52846D01*
X72354Y-52837D01*
X72307Y-52837D01*
X72270Y-52846D01*
X72251Y-52856D01*
X72242Y-52865D01*
X72232Y-52884D01*
X73204Y-52654D02*
X73007Y-52654D01*
X73007Y-52701D01*
X73017Y-52729D01*
X73035Y-52748D01*
X73054Y-52757D01*
X73092Y-52767D01*
X73120Y-52767D01*
X73157Y-52757D01*
X73176Y-52748D01*
X73195Y-52729D01*
X73204Y-52701D01*
X73204Y-52654D01*
X73204Y-52954D02*
X73204Y-52842D01*
X73204Y-52898D02*
X73007Y-52898D01*
X73035Y-52879D01*
X73054Y-52860D01*
X73064Y-52842D01*
X71748Y-52673D02*
X71748Y-52579D01*
X71551Y-52579D01*
X71645Y-52739D02*
X71645Y-52804D01*
X71748Y-52832D02*
X71748Y-52739D01*
X71551Y-52739D01*
X71551Y-52832D01*
X71748Y-52917D02*
X71551Y-52917D01*
X71551Y-52964D01*
X71561Y-52992D01*
X71579Y-53011D01*
X71598Y-53020D01*
X71636Y-53029D01*
X71664Y-53029D01*
X71701Y-53020D01*
X71720Y-53011D01*
X71739Y-52992D01*
X71748Y-52964D01*
X71748Y-52917D01*
M02*
