M48
;DRILL file {Pcbnew (2013-07-07 BZR 4022)-stable} date 11/24/2014 5:08:54 AM
;FORMAT={2:4/ absolute / inch / keep zeros}
FMAT,2
INCH,TZ
T1C0.025
T2C0.039
T3C0.040
T4C0.043
T5C0.098
%
G90
G05
M72
T1
X074100Y-054500
X076600Y-056400
T2
X073622Y-057173
X074606Y-057173
X075394Y-057173
X076378Y-057173
T3
X071000Y-051000
X071000Y-052000
X071000Y-053000
X071000Y-054000
X071000Y-055000
X079000Y-051000
X079000Y-052000
X079000Y-053000
X079000Y-054000
X079000Y-055000
T4
X074114Y-058000
X075886Y-058000
T5
X072362Y-058000
X077638Y-058000
T0
M30
