G04 (created by PCBNEW (2013-07-07 BZR 4022)-stable) date 11/24/2014 5:15:10 AM*
%MOIN*%
G04 Gerber Fmt 3.4, Leading zero omitted, Abs format*
%FSLAX34Y34*%
G01*
G70*
G90*
G04 APERTURE LIST*
%ADD10C,0.00590551*%
%ADD11C,0.012*%
%ADD12C,0.008*%
G04 APERTURE END LIST*
G54D10*
X77362Y-56149D02*
X77362Y-50637D01*
X72637Y-56149D02*
X72637Y-50637D01*
X72637Y-56149D02*
X77362Y-56149D01*
G54D11*
X79500Y-50500D02*
X78500Y-50500D01*
X78500Y-55500D02*
X79500Y-55500D01*
X79500Y-50500D02*
X79500Y-55500D01*
X78500Y-55500D02*
X78500Y-50500D01*
X70500Y-55500D02*
X71500Y-55500D01*
X71500Y-50500D02*
X70500Y-50500D01*
X70500Y-55500D02*
X70500Y-50500D01*
X71500Y-50500D02*
X71500Y-55500D01*
G54D10*
X73162Y-56457D02*
X73293Y-56457D01*
X73350Y-56663D02*
X73162Y-56663D01*
X73162Y-56269D01*
X73350Y-56269D01*
X73500Y-56644D02*
X73556Y-56663D01*
X73650Y-56663D01*
X73687Y-56644D01*
X73706Y-56625D01*
X73725Y-56588D01*
X73725Y-56550D01*
X73706Y-56513D01*
X73687Y-56494D01*
X73650Y-56475D01*
X73575Y-56457D01*
X73537Y-56438D01*
X73518Y-56419D01*
X73500Y-56382D01*
X73500Y-56344D01*
X73518Y-56307D01*
X73537Y-56288D01*
X73575Y-56269D01*
X73668Y-56269D01*
X73725Y-56288D01*
X73893Y-56663D02*
X73893Y-56269D01*
X74043Y-56269D01*
X74081Y-56288D01*
X74100Y-56307D01*
X74118Y-56344D01*
X74118Y-56400D01*
X74100Y-56438D01*
X74081Y-56457D01*
X74043Y-56475D01*
X73893Y-56475D01*
X74343Y-56438D02*
X74306Y-56419D01*
X74287Y-56400D01*
X74268Y-56363D01*
X74268Y-56344D01*
X74287Y-56307D01*
X74306Y-56288D01*
X74343Y-56269D01*
X74418Y-56269D01*
X74456Y-56288D01*
X74475Y-56307D01*
X74493Y-56344D01*
X74493Y-56363D01*
X74475Y-56400D01*
X74456Y-56419D01*
X74418Y-56438D01*
X74343Y-56438D01*
X74306Y-56457D01*
X74287Y-56475D01*
X74268Y-56513D01*
X74268Y-56588D01*
X74287Y-56625D01*
X74306Y-56644D01*
X74343Y-56663D01*
X74418Y-56663D01*
X74456Y-56644D01*
X74475Y-56625D01*
X74493Y-56588D01*
X74493Y-56513D01*
X74475Y-56475D01*
X74456Y-56457D01*
X74418Y-56438D01*
X74643Y-56307D02*
X74662Y-56288D01*
X74700Y-56269D01*
X74793Y-56269D01*
X74831Y-56288D01*
X74850Y-56307D01*
X74868Y-56344D01*
X74868Y-56382D01*
X74850Y-56438D01*
X74625Y-56663D01*
X74868Y-56663D01*
X75206Y-56269D02*
X75131Y-56269D01*
X75093Y-56288D01*
X75074Y-56307D01*
X75037Y-56363D01*
X75018Y-56438D01*
X75018Y-56588D01*
X75037Y-56625D01*
X75056Y-56644D01*
X75093Y-56663D01*
X75168Y-56663D01*
X75206Y-56644D01*
X75224Y-56625D01*
X75243Y-56588D01*
X75243Y-56494D01*
X75224Y-56457D01*
X75206Y-56438D01*
X75168Y-56419D01*
X75093Y-56419D01*
X75056Y-56438D01*
X75037Y-56457D01*
X75018Y-56494D01*
X75581Y-56269D02*
X75506Y-56269D01*
X75468Y-56288D01*
X75449Y-56307D01*
X75412Y-56363D01*
X75393Y-56438D01*
X75393Y-56588D01*
X75412Y-56625D01*
X75431Y-56644D01*
X75468Y-56663D01*
X75543Y-56663D01*
X75581Y-56644D01*
X75599Y-56625D01*
X75618Y-56588D01*
X75618Y-56494D01*
X75599Y-56457D01*
X75581Y-56438D01*
X75543Y-56419D01*
X75468Y-56419D01*
X75431Y-56438D01*
X75412Y-56457D01*
X75393Y-56494D01*
X75787Y-56513D02*
X76087Y-56513D01*
X76349Y-56269D02*
X76387Y-56269D01*
X76424Y-56288D01*
X76443Y-56307D01*
X76462Y-56344D01*
X76481Y-56419D01*
X76481Y-56513D01*
X76462Y-56588D01*
X76443Y-56625D01*
X76424Y-56644D01*
X76387Y-56663D01*
X76349Y-56663D01*
X76312Y-56644D01*
X76293Y-56625D01*
X76274Y-56588D01*
X76256Y-56513D01*
X76256Y-56419D01*
X76274Y-56344D01*
X76293Y-56307D01*
X76312Y-56288D01*
X76349Y-56269D01*
X76612Y-56269D02*
X76856Y-56269D01*
X76724Y-56419D01*
X76781Y-56419D01*
X76818Y-56438D01*
X76837Y-56457D01*
X76856Y-56494D01*
X76856Y-56588D01*
X76837Y-56625D01*
X76818Y-56644D01*
X76781Y-56663D01*
X76668Y-56663D01*
X76631Y-56644D01*
X76612Y-56625D01*
G54D12*
G54D10*
X74503Y-58553D02*
X74503Y-58871D01*
X74521Y-58909D01*
X74540Y-58928D01*
X74578Y-58946D01*
X74653Y-58946D01*
X74690Y-58928D01*
X74709Y-58909D01*
X74728Y-58871D01*
X74728Y-58553D01*
X74896Y-58928D02*
X74953Y-58946D01*
X75046Y-58946D01*
X75084Y-58928D01*
X75103Y-58909D01*
X75121Y-58871D01*
X75121Y-58834D01*
X75103Y-58796D01*
X75084Y-58778D01*
X75046Y-58759D01*
X74971Y-58740D01*
X74934Y-58721D01*
X74915Y-58703D01*
X74896Y-58665D01*
X74896Y-58628D01*
X74915Y-58590D01*
X74934Y-58571D01*
X74971Y-58553D01*
X75065Y-58553D01*
X75121Y-58571D01*
X75421Y-58740D02*
X75478Y-58759D01*
X75496Y-58778D01*
X75515Y-58815D01*
X75515Y-58871D01*
X75496Y-58909D01*
X75478Y-58928D01*
X75440Y-58946D01*
X75290Y-58946D01*
X75290Y-58553D01*
X75421Y-58553D01*
X75459Y-58571D01*
X75478Y-58590D01*
X75496Y-58628D01*
X75496Y-58665D01*
X75478Y-58703D01*
X75459Y-58721D01*
X75421Y-58740D01*
X75290Y-58740D01*
M02*
